<svg width="23" height="28" viewBox="0 0 23 28" fill="none" xmlns="http://www.w3.org/2000/svg">
<path id="Vector" d="M9.98804 2.07017L11.072 0.697601C11.531 0.116425 12.2732 0.116425 12.7273 0.697601L22.2195 12.7107C22.6785 13.2918 22.6785 14.2316 22.2195 14.8066L12.7273 26.8258C12.2683 27.407 11.5261 27.407 11.072 26.8258L9.98804 25.4533C9.52417 24.8659 9.53394 23.9076 10.0076 23.3326L15.8914 16.2348H1.85815C1.20874 16.2348 0.686279 15.5733 0.686279 14.751V12.7725C0.686279 11.9502 1.20874 11.2886 1.85815 11.2886H15.8914L10.0076 4.19085C9.52905 3.61585 9.51929 2.65753 9.98804 2.07017Z" fill="#BECD97"/>
</svg>
